<mxfile host="app.diagrams.net" modified="2023-09-27T15:26:11.762Z" agent="Mozilla/5.0 (Windows NT 10.0; Win64; x64) AppleWebKit/537.36 (KHTML, like Gecko) Chrome/116.0.0.0 Safari/537.36" etag="mbh34d6GotNtPpLshFn8" version="21.8.2" type="google">
  <diagram id="C5RBs43oDa-KdzZeNtuy" name="Page-1">
    <mxGraphModel grid="1" page="1" gridSize="10" guides="1" tooltips="1" connect="1" arrows="1" fold="1" pageScale="1" pageWidth="827" pageHeight="1169" math="0" shadow="0">
      <root>
        <mxCell id="WIyWlLk6GJQsqaUBKTNV-0" />
        <mxCell id="WIyWlLk6GJQsqaUBKTNV-1" parent="WIyWlLk6GJQsqaUBKTNV-0" />
        <mxCell id="zkfFHV4jXpPFQw0GAbJ--0" value="Sistema" style="swimlane;fontStyle=1;align=center;verticalAlign=top;childLayout=stackLayout;horizontal=1;startSize=26;horizontalStack=0;resizeParent=1;resizeLast=0;collapsible=1;marginBottom=0;rounded=0;shadow=0;strokeWidth=1;" vertex="1" parent="WIyWlLk6GJQsqaUBKTNV-1">
          <mxGeometry x="-640" y="720" width="320" height="280" as="geometry">
            <mxRectangle x="230" y="140" width="160" height="26" as="alternateBounds" />
          </mxGeometry>
        </mxCell>
        <mxCell id="zkfFHV4jXpPFQw0GAbJ--1" value="- listaAlunos: List &lt;Aluno&gt;&#xa;- listaOrientadores: List&lt;Orientador&gt;&#xa;- listaEntregas: List&lt;Entrega&gt;&#xa;- listaTurmas: List&lt;Turma&gt;&#xa;" style="text;align=left;verticalAlign=top;spacingLeft=4;spacingRight=4;overflow=hidden;rotatable=0;points=[[0,0.5],[1,0.5]];portConstraint=eastwest;" vertex="1" parent="zkfFHV4jXpPFQw0GAbJ--0">
          <mxGeometry y="26" width="320" height="94" as="geometry" />
        </mxCell>
        <mxCell id="zkfFHV4jXpPFQw0GAbJ--4" value="" style="line;html=1;strokeWidth=1;align=left;verticalAlign=middle;spacingTop=-1;spacingLeft=3;spacingRight=3;rotatable=0;labelPosition=right;points=[];portConstraint=eastwest;" vertex="1" parent="zkfFHV4jXpPFQw0GAbJ--0">
          <mxGeometry y="120" width="320" height="8" as="geometry" />
        </mxCell>
        <mxCell id="DyrlEhUT1evfAKf0mOx5-14" value="+ buscarTodosAlunos (): List &amp;lt;Aluno&amp;gt;&lt;br&gt;+ buscarAlunoPorEmail (String ): Aluno&amp;nbsp;&lt;br&gt;+ buscarTodosOrientadores (): List &amp;lt;Orientadores&amp;gt;&lt;br&gt;+ buscarOrientadoresPorEmail (String): Orientador&lt;br&gt;+ addAluno(Aluno): void&lt;br&gt;+ addOrientador(Orientador): void&lt;br&gt;+ addEntrega(Entrega): void&lt;br&gt;+ buscarTurmas(): List&amp;lt;Turma&amp;gt;&lt;br&gt;+ addTurma(Turma): void" style="text;html=1;align=left;verticalAlign=middle;resizable=0;points=[];autosize=1;strokeColor=none;fillColor=none;" vertex="1" parent="zkfFHV4jXpPFQw0GAbJ--0">
          <mxGeometry y="128" width="320" height="140" as="geometry" />
        </mxCell>
        <mxCell id="WAbojJwEJFHwkWnRIhdQ-28" value="" style="edgeStyle=orthogonalEdgeStyle;rounded=0;orthogonalLoop=1;jettySize=auto;html=1;" edge="1" parent="WIyWlLk6GJQsqaUBKTNV-1" source="zkfFHV4jXpPFQw0GAbJ--6">
          <mxGeometry relative="1" as="geometry">
            <mxPoint x="-480" y="710" as="targetPoint" />
          </mxGeometry>
        </mxCell>
        <mxCell id="zkfFHV4jXpPFQw0GAbJ--6" value="Aluno" style="swimlane;fontStyle=1;align=center;verticalAlign=top;childLayout=stackLayout;horizontal=1;startSize=26;horizontalStack=0;resizeParent=1;resizeLast=0;collapsible=1;marginBottom=0;rounded=0;shadow=0;strokeWidth=1;" vertex="1" parent="WIyWlLk6GJQsqaUBKTNV-1">
          <mxGeometry x="-640" y="119" width="320" height="380" as="geometry">
            <mxRectangle x="130" y="380" width="160" height="26" as="alternateBounds" />
          </mxGeometry>
        </mxCell>
        <mxCell id="zkfFHV4jXpPFQw0GAbJ--7" value="- id: int&#xa;- nome: String&#xa;- email: String&#xa;- emailFatec: String&#xa;- idOrientador: int&#xa;- idTurma: int&#xa;- listaNotas: List &lt;Nota&gt;" style="text;align=left;verticalAlign=top;spacingLeft=4;spacingRight=4;overflow=hidden;rotatable=0;points=[[0,0.5],[1,0.5]];portConstraint=eastwest;" vertex="1" parent="zkfFHV4jXpPFQw0GAbJ--6">
          <mxGeometry y="26" width="320" height="124" as="geometry" />
        </mxCell>
        <mxCell id="zkfFHV4jXpPFQw0GAbJ--9" value="" style="line;html=1;strokeWidth=1;align=left;verticalAlign=middle;spacingTop=-1;spacingLeft=3;spacingRight=3;rotatable=0;labelPosition=right;points=[];portConstraint=eastwest;" vertex="1" parent="zkfFHV4jXpPFQw0GAbJ--6">
          <mxGeometry y="150" width="320" height="8" as="geometry" />
        </mxCell>
        <mxCell id="zkfFHV4jXpPFQw0GAbJ--10" value="+ getId(): int&#xa;+ setId(int): void&#xa;+ getNome(): String&#xa;+ setNome(String): void&#xa;+ getEmail(): String&#xa;+ setEmail(String): void&#xa;+ getEmailFatec(): String&#xa;+ setEmailFatec(String): void&#xa;+ getIdOrientador(): int&#xa;- setIdOrientador(int): void&#xa;+ getIdTurma(): int&#xa;+ setIdTurma(int): void&#xa;+ addNota(Nota):void&#xa;+ getNotas(): List&lt;Nota&gt;" style="text;align=left;verticalAlign=top;spacingLeft=4;spacingRight=4;overflow=hidden;rotatable=0;points=[[0,0.5],[1,0.5]];portConstraint=eastwest;fontStyle=0" vertex="1" parent="zkfFHV4jXpPFQw0GAbJ--6">
          <mxGeometry y="158" width="320" height="222" as="geometry" />
        </mxCell>
        <mxCell id="zkfFHV4jXpPFQw0GAbJ--13" value="Orientador" style="swimlane;fontStyle=1;align=center;verticalAlign=top;childLayout=stackLayout;horizontal=1;startSize=26;horizontalStack=0;resizeParent=1;resizeLast=0;collapsible=1;marginBottom=0;rounded=0;shadow=0;strokeWidth=1;" vertex="1" parent="WIyWlLk6GJQsqaUBKTNV-1">
          <mxGeometry x="-990" y="522" width="230" height="268" as="geometry">
            <mxRectangle x="340" y="380" width="170" height="26" as="alternateBounds" />
          </mxGeometry>
        </mxCell>
        <mxCell id="zkfFHV4jXpPFQw0GAbJ--14" value="- id: int&#xa;- nome: String&#xa;- emailFatec: String" style="text;align=left;verticalAlign=top;spacingLeft=4;spacingRight=4;overflow=hidden;rotatable=0;points=[[0,0.5],[1,0.5]];portConstraint=eastwest;" vertex="1" parent="zkfFHV4jXpPFQw0GAbJ--13">
          <mxGeometry y="26" width="230" height="84" as="geometry" />
        </mxCell>
        <mxCell id="zkfFHV4jXpPFQw0GAbJ--15" value="" style="line;html=1;strokeWidth=1;align=left;verticalAlign=middle;spacingTop=-1;spacingLeft=3;spacingRight=3;rotatable=0;labelPosition=right;points=[];portConstraint=eastwest;" vertex="1" parent="zkfFHV4jXpPFQw0GAbJ--13">
          <mxGeometry y="110" width="230" height="58" as="geometry" />
        </mxCell>
        <mxCell id="DyrlEhUT1evfAKf0mOx5-16" value="+ getId(): int&lt;br style=&quot;border-color: var(--border-color);&quot;&gt;&lt;span style=&quot;&quot;&gt;+ setId(int): void&lt;/span&gt;&lt;br&gt;+ getNome (): String&lt;br&gt;+ setNome (String):void&lt;br&gt;+ getemailFatec ():String&lt;br&gt;+ setemailFatec (String): void" style="text;html=1;align=left;verticalAlign=middle;resizable=0;points=[];autosize=1;strokeColor=none;fillColor=none;" vertex="1" parent="zkfFHV4jXpPFQw0GAbJ--13">
          <mxGeometry y="168" width="230" height="100" as="geometry" />
        </mxCell>
        <mxCell id="DyrlEhUT1evfAKf0mOx5-9" value="Nota" style="swimlane;fontStyle=1;align=center;verticalAlign=top;childLayout=stackLayout;horizontal=1;startSize=26;horizontalStack=0;resizeParent=1;resizeParentMax=0;resizeLast=0;collapsible=1;marginBottom=0;whiteSpace=wrap;html=1;" vertex="1" parent="WIyWlLk6GJQsqaUBKTNV-1">
          <mxGeometry x="-240" y="170" width="180" height="280" as="geometry" />
        </mxCell>
        <mxCell id="DyrlEhUT1evfAKf0mOx5-10" value="- id: int&lt;br&gt;- feedback: String&lt;br&gt;- valor: float&lt;br&gt;- idEntrega: int&lt;br&gt;- idAluno: int" style="text;strokeColor=none;fillColor=none;align=left;verticalAlign=top;spacingLeft=4;spacingRight=4;overflow=hidden;rotatable=0;points=[[0,0.5],[1,0.5]];portConstraint=eastwest;whiteSpace=wrap;html=1;" vertex="1" parent="DyrlEhUT1evfAKf0mOx5-9">
          <mxGeometry y="26" width="180" height="84" as="geometry" />
        </mxCell>
        <mxCell id="DyrlEhUT1evfAKf0mOx5-11" value="" style="line;strokeWidth=1;fillColor=none;align=left;verticalAlign=middle;spacingTop=-1;spacingLeft=3;spacingRight=3;rotatable=0;labelPosition=right;points=[];portConstraint=eastwest;strokeColor=inherit;" vertex="1" parent="DyrlEhUT1evfAKf0mOx5-9">
          <mxGeometry y="110" width="180" height="8" as="geometry" />
        </mxCell>
        <mxCell id="DyrlEhUT1evfAKf0mOx5-12" value="+ getId():int&lt;br&gt;+ setId(int): void&lt;br&gt;+ getFeedback():String&lt;br&gt;+ setFeedback(String):void&lt;br&gt;+ getValor():float&lt;br&gt;+ setValor(float):void&lt;br&gt;+ getIdEntrega():int&lt;br&gt;+ setIdEntrega(int): void&lt;br&gt;+ getIdAluno(): int&lt;br&gt;+ setIdAluno(int): void" style="text;strokeColor=none;fillColor=none;align=left;verticalAlign=top;spacingLeft=4;spacingRight=4;overflow=hidden;rotatable=0;points=[[0,0.5],[1,0.5]];portConstraint=eastwest;whiteSpace=wrap;html=1;" vertex="1" parent="DyrlEhUT1evfAKf0mOx5-9">
          <mxGeometry y="118" width="180" height="162" as="geometry" />
        </mxCell>
        <mxCell id="WAbojJwEJFHwkWnRIhdQ-18" value="" style="edgeStyle=orthogonalEdgeStyle;rounded=0;orthogonalLoop=1;jettySize=auto;html=1;exitX=0.502;exitY=1.029;exitDx=0;exitDy=0;exitPerimeter=0;entryX=0.5;entryY=0;entryDx=0;entryDy=0;" edge="1" parent="WIyWlLk6GJQsqaUBKTNV-1" target="DyrlEhUT1evfAKf0mOx5-17">
          <mxGeometry relative="1" as="geometry">
            <mxPoint x="-150.42" y="490" as="targetPoint" />
            <Array as="points">
              <mxPoint x="-150" y="450" />
              <mxPoint x="-150" y="450" />
            </Array>
            <mxPoint x="-150.05999999999986" y="464.698" as="sourcePoint" />
          </mxGeometry>
        </mxCell>
        <mxCell id="DyrlEhUT1evfAKf0mOx5-17" value="Entrega" style="swimlane;fontStyle=1;align=center;verticalAlign=top;childLayout=stackLayout;horizontal=1;startSize=26;horizontalStack=0;resizeParent=1;resizeParentMax=0;resizeLast=0;collapsible=1;marginBottom=0;whiteSpace=wrap;html=1;" vertex="1" parent="WIyWlLk6GJQsqaUBKTNV-1">
          <mxGeometry x="-240" y="480" width="180" height="240" as="geometry" />
        </mxCell>
        <mxCell id="DyrlEhUT1evfAKf0mOx5-18" value="- id: int&lt;br&gt;- dataEntrega: Date&lt;br&gt;- título: String&lt;br&gt;- idTurma: int" style="text;strokeColor=none;fillColor=none;align=left;verticalAlign=top;spacingLeft=4;spacingRight=4;overflow=hidden;rotatable=0;points=[[0,0.5],[1,0.5]];portConstraint=eastwest;whiteSpace=wrap;html=1;" vertex="1" parent="DyrlEhUT1evfAKf0mOx5-17">
          <mxGeometry y="26" width="180" height="74" as="geometry" />
        </mxCell>
        <mxCell id="DyrlEhUT1evfAKf0mOx5-19" value="" style="line;strokeWidth=1;fillColor=none;align=left;verticalAlign=middle;spacingTop=-1;spacingLeft=3;spacingRight=3;rotatable=0;labelPosition=right;points=[];portConstraint=eastwest;strokeColor=inherit;" vertex="1" parent="DyrlEhUT1evfAKf0mOx5-17">
          <mxGeometry y="100" width="180" height="8" as="geometry" />
        </mxCell>
        <mxCell id="DyrlEhUT1evfAKf0mOx5-20" value="+ getId(): int&lt;br&gt;+ setId(int):void&lt;br&gt;+ getDataEntrega (): Date&lt;br&gt;+ setDataEntrega(Date):void&lt;br&gt;+ getTítulo (): String&lt;br&gt;+ setTítulo(String): void&lt;br&gt;+ getIdTurma(): int&lt;br&gt;+ setIdTurma(int): void" style="text;strokeColor=none;fillColor=none;align=left;verticalAlign=top;spacingLeft=4;spacingRight=4;overflow=hidden;rotatable=0;points=[[0,0.5],[1,0.5]];portConstraint=eastwest;whiteSpace=wrap;html=1;" vertex="1" parent="DyrlEhUT1evfAKf0mOx5-17">
          <mxGeometry y="108" width="180" height="132" as="geometry" />
        </mxCell>
        <mxCell id="4pE9Iu1bz3tuYbW6IJxL-0" style="edgeStyle=orthogonalEdgeStyle;rounded=0;orthogonalLoop=1;jettySize=auto;html=1;" edge="1" parent="WIyWlLk6GJQsqaUBKTNV-1" source="DyrlEhUT1evfAKf0mOx5-22">
          <mxGeometry relative="1" as="geometry">
            <mxPoint x="-320" y="140" as="targetPoint" />
            <Array as="points">
              <mxPoint x="170" y="140" />
            </Array>
          </mxGeometry>
        </mxCell>
        <mxCell id="DyrlEhUT1evfAKf0mOx5-22" value="TG" style="swimlane;fontStyle=1;align=center;verticalAlign=top;childLayout=stackLayout;horizontal=1;startSize=26;horizontalStack=0;resizeParent=1;resizeParentMax=0;resizeLast=0;collapsible=1;marginBottom=0;whiteSpace=wrap;html=1;" vertex="1" parent="WIyWlLk6GJQsqaUBKTNV-1">
          <mxGeometry x="80" y="720" width="180" height="320" as="geometry" />
        </mxCell>
        <mxCell id="OD9DnkSS-2-qvDJjl4iS-16" value="- id: int&lt;br&gt;- tipo: String&lt;br&gt;- discplina: String&lt;br&gt;- problema: String&lt;br&gt;- empresa: String&lt;br&gt;- idAluno: int" style="text;html=1;align=left;verticalAlign=middle;resizable=0;points=[];autosize=1;strokeColor=none;fillColor=none;" vertex="1" parent="DyrlEhUT1evfAKf0mOx5-22">
          <mxGeometry y="26" width="180" height="100" as="geometry" />
        </mxCell>
        <mxCell id="DyrlEhUT1evfAKf0mOx5-24" value="" style="line;strokeWidth=1;fillColor=none;align=left;verticalAlign=middle;spacingTop=-1;spacingLeft=3;spacingRight=3;rotatable=0;labelPosition=right;points=[];portConstraint=eastwest;strokeColor=inherit;" vertex="1" parent="DyrlEhUT1evfAKf0mOx5-22">
          <mxGeometry y="126" width="180" height="4" as="geometry" />
        </mxCell>
        <mxCell id="DyrlEhUT1evfAKf0mOx5-25" value="+ getId(): int&lt;br&gt;+ setId(int): void&lt;br&gt;+ getTipo(): String&lt;br&gt;+ setTipo(String): void&lt;br&gt;+ getDiscplina(): String&lt;br&gt;+ setDisciplina(String): void&lt;br&gt;+ getProblema(): String&lt;br&gt;+ setProblema(String): void&lt;br&gt;+ getEmpresa(): String&lt;br&gt;+ setEmpresa(String): void&lt;br&gt;+ getIdAluno(): int&lt;br&gt;+ setIdAluno(int): void" style="text;strokeColor=none;fillColor=none;align=left;verticalAlign=top;spacingLeft=4;spacingRight=4;overflow=hidden;rotatable=0;points=[[0,0.5],[1,0.5]];portConstraint=eastwest;whiteSpace=wrap;html=1;" vertex="1" parent="DyrlEhUT1evfAKf0mOx5-22">
          <mxGeometry y="130" width="180" height="190" as="geometry" />
        </mxCell>
        <mxCell id="OD9DnkSS-2-qvDJjl4iS-1" value="Turma" style="swimlane;fontStyle=1;align=center;verticalAlign=top;childLayout=stackLayout;horizontal=1;startSize=26;horizontalStack=0;resizeParent=1;resizeParentMax=0;resizeLast=0;collapsible=1;marginBottom=0;whiteSpace=wrap;html=1;" vertex="1" parent="WIyWlLk6GJQsqaUBKTNV-1">
          <mxGeometry x="-240" y="799" width="180" height="210" as="geometry" />
        </mxCell>
        <mxCell id="OD9DnkSS-2-qvDJjl4iS-2" value="- id: int&lt;br&gt;- ano: int&lt;br&gt;- semestre: int&lt;br&gt;- disciplina: int" style="text;strokeColor=none;fillColor=none;align=left;verticalAlign=top;spacingLeft=4;spacingRight=4;overflow=hidden;rotatable=0;points=[[0,0.5],[1,0.5]];portConstraint=eastwest;whiteSpace=wrap;html=1;" vertex="1" parent="OD9DnkSS-2-qvDJjl4iS-1">
          <mxGeometry y="26" width="180" height="74" as="geometry" />
        </mxCell>
        <mxCell id="OD9DnkSS-2-qvDJjl4iS-3" value="" style="line;strokeWidth=1;fillColor=none;align=left;verticalAlign=middle;spacingTop=-1;spacingLeft=3;spacingRight=3;rotatable=0;labelPosition=right;points=[];portConstraint=eastwest;strokeColor=inherit;" vertex="1" parent="OD9DnkSS-2-qvDJjl4iS-1">
          <mxGeometry y="100" width="180" height="8" as="geometry" />
        </mxCell>
        <mxCell id="OD9DnkSS-2-qvDJjl4iS-4" value="+ getId(): int&lt;br&gt;+ setId(int): void&lt;br&gt;+ getAno(): int&lt;br&gt;+ setAno(int): void&lt;br&gt;+ getSemestre(): int&lt;br&gt;+ setSemestre(int): void" style="text;strokeColor=none;fillColor=none;align=left;verticalAlign=top;spacingLeft=4;spacingRight=4;overflow=hidden;rotatable=0;points=[[0,0.5],[1,0.5]];portConstraint=eastwest;whiteSpace=wrap;html=1;" vertex="1" parent="OD9DnkSS-2-qvDJjl4iS-1">
          <mxGeometry y="108" width="180" height="102" as="geometry" />
        </mxCell>
        <mxCell id="WAbojJwEJFHwkWnRIhdQ-8" value="" style="endArrow=classic;html=1;rounded=0;exitX=0.465;exitY=1.041;exitDx=0;exitDy=0;exitPerimeter=0;" edge="1" parent="WIyWlLk6GJQsqaUBKTNV-1" source="DyrlEhUT1evfAKf0mOx5-16">
          <mxGeometry width="50" height="50" relative="1" as="geometry">
            <mxPoint x="-640" y="744.54" as="sourcePoint" />
            <mxPoint x="-650" y="800" as="targetPoint" />
            <Array as="points">
              <mxPoint x="-883" y="800" />
            </Array>
          </mxGeometry>
        </mxCell>
        <mxCell id="WAbojJwEJFHwkWnRIhdQ-23" style="edgeStyle=orthogonalEdgeStyle;rounded=0;orthogonalLoop=1;jettySize=auto;html=1;entryX=1.014;entryY=0.316;entryDx=0;entryDy=0;entryPerimeter=0;" edge="1" parent="WIyWlLk6GJQsqaUBKTNV-1" source="DyrlEhUT1evfAKf0mOx5-20" target="zkfFHV4jXpPFQw0GAbJ--1">
          <mxGeometry relative="1" as="geometry" />
        </mxCell>
        <mxCell id="WAbojJwEJFHwkWnRIhdQ-29" value="" style="edgeStyle=orthogonalEdgeStyle;rounded=0;orthogonalLoop=1;jettySize=auto;html=1;" edge="1" parent="WIyWlLk6GJQsqaUBKTNV-1" source="zkfFHV4jXpPFQw0GAbJ--10">
          <mxGeometry relative="1" as="geometry">
            <Array as="points">
              <mxPoint x="-890" y="403" />
            </Array>
            <mxPoint x="-890" y="510" as="targetPoint" />
          </mxGeometry>
        </mxCell>
        <mxCell id="LAlmsC31L1QHkv60Piju-1" style="edgeStyle=orthogonalEdgeStyle;rounded=0;orthogonalLoop=1;jettySize=auto;html=1;" edge="1" parent="WIyWlLk6GJQsqaUBKTNV-1" source="DyrlEhUT1evfAKf0mOx5-10" target="zkfFHV4jXpPFQw0GAbJ--7">
          <mxGeometry relative="1" as="geometry" />
        </mxCell>
        <mxCell id="LAlmsC31L1QHkv60Piju-3" value="" style="endArrow=classic;html=1;rounded=0;exitX=0.478;exitY=1.023;exitDx=0;exitDy=0;exitPerimeter=0;" edge="1" parent="WIyWlLk6GJQsqaUBKTNV-1" source="DyrlEhUT1evfAKf0mOx5-20">
          <mxGeometry width="50" height="50" relative="1" as="geometry">
            <mxPoint x="-400" y="690" as="sourcePoint" />
            <mxPoint x="-154" y="800" as="targetPoint" />
          </mxGeometry>
        </mxCell>
        <mxCell id="LAlmsC31L1QHkv60Piju-4" value="" style="endArrow=classic;html=1;rounded=0;exitX=0.002;exitY=0.721;exitDx=0;exitDy=0;exitPerimeter=0;entryX=1.019;entryY=0.217;entryDx=0;entryDy=0;entryPerimeter=0;" edge="1" parent="WIyWlLk6GJQsqaUBKTNV-1" source="OD9DnkSS-2-qvDJjl4iS-2" target="DyrlEhUT1evfAKf0mOx5-14">
          <mxGeometry width="50" height="50" relative="1" as="geometry">
            <mxPoint x="-400" y="880" as="sourcePoint" />
            <mxPoint x="-350" y="830" as="targetPoint" />
          </mxGeometry>
        </mxCell>
      </root>
    </mxGraphModel>
  </diagram>
</mxfile>
